<?xml version="1.0" ?><!DOCTYPE svg  PUBLIC '-//W3C//DTD SVG 1.0//EN'  'http://www.w3.org/TR/2001/REC-SVG-20010904/DTD/svg10.dtd'><svg enable-background="new 0 0 91.8 92.6" id="Layer_1" version="1.0" viewBox="0 0 91.8 92.6" xml:space="preserve" xmlns="http://www.w3.org/2000/svg" xmlns:xlink="http://www.w3.org/1999/xlink"><g><path d="M45.9,3.6c-23.5,0-42.5,19-42.5,42.5c0,23.5,19,42.5,42.5,42.5c23.5,0,42.5-19,42.5-42.5   C88.4,22.7,69.4,3.6,45.9,3.6z M69.4,62.2c1.2,1.2,1.2,3.2,0,4.4l-3.2,3.2C65,71,63,71,61.8,69.8L45.9,53.9L30,69.8   c-1.2,1.2-3.2,1.2-4.4,0l-3.2-3.2c-1.2-1.2-1.2-3.2,0-4.4l15.9-15.9L22.3,30.4c-1.2-1.2-1.2-3.2,0-4.4l3.2-3.2   c1.2-1.2,3.2-1.2,4.4,0l15.9,15.9l15.9-15.9c1.2-1.2,3.2-1.2,4.4,0l3.2,3.2c1.2,1.2,1.2,3.2,0,4.4L53.5,46.3L69.4,62.2z" fill="#1E1E1E"/></g></svg>